<svg width="28" height="28" viewBox="0 0 28 28" fill="none" xmlns="http://www.w3.org/2000/svg">
<path d="M6.19107 25.0833C5.6093 25.0833 5.1123 24.8773 4.70007 24.4653C4.28805 24.0531 4.08203 23.5561 4.08203 22.9743V9.69238C4.08203 9.1106 4.28805 8.6136 4.70007 8.20138C5.1123 7.78935 5.6093 7.58334 6.19107 7.58334H8.7487C8.7487 6.12656 9.2595 4.88736 10.2811 3.86575C11.3027 2.84414 12.5419 2.33334 13.9987 2.33334C15.4555 2.33334 16.6947 2.84414 17.7163 3.86575C18.7379 4.88736 19.2487 6.12656 19.2487 7.58334H21.8063C22.3881 7.58334 22.8851 7.78935 23.2973 8.20138C23.7094 8.6136 23.9154 9.1106 23.9154 9.69238V22.9743C23.9154 23.5561 23.7094 24.0531 23.2973 24.4653C22.8851 24.8773 22.3881 25.0833 21.8063 25.0833H6.19107ZM6.19107 23.3333H21.8063C21.8962 23.3333 21.9784 23.2959 22.0531 23.221C22.1279 23.1464 22.1654 23.0641 22.1654 22.9743V9.69238C22.1654 9.60254 22.1279 9.52029 22.0531 9.44563C21.9784 9.37077 21.8962 9.33334 21.8063 9.33334H6.19107C6.10124 9.33334 6.01899 9.37077 5.94432 9.44563C5.86946 9.52029 5.83203 9.60254 5.83203 9.69238V22.9743C5.83203 23.0641 5.86946 23.1464 5.94432 23.221C6.01899 23.2959 6.10124 23.3333 6.19107 23.3333ZM13.9987 15.75C15.4555 15.75 16.6947 15.2392 17.7163 14.2176C18.7379 13.196 19.2487 11.9568 19.2487 10.5H17.4987C17.4987 11.4722 17.1584 12.2986 16.4779 12.9792C15.7973 13.6597 14.9709 14 13.9987 14C13.0265 14 12.2001 13.6597 11.5195 12.9792C10.839 12.2986 10.4987 11.4722 10.4987 10.5H8.7487C8.7487 11.9568 9.2595 13.196 10.2811 14.2176C11.3027 15.2392 12.5419 15.75 13.9987 15.75ZM10.4987 7.58334H17.4987C17.4987 6.61111 17.1584 5.78472 16.4779 5.10417C15.7973 4.42361 14.9709 4.08334 13.9987 4.08334C13.0265 4.08334 12.2001 4.42361 11.5195 5.10417C10.839 5.78472 10.4987 6.61111 10.4987 7.58334Z" fill="#2C2C30"/>
</svg>
