<svg width="28" height="28" viewBox="0 0 28 28" fill="none" xmlns="http://www.w3.org/2000/svg">
<path d="M5.83203 12.8333C5.35486 12.8333 4.94391 12.661 4.59916 12.3162C4.25441 11.9715 4.08203 11.5605 4.08203 11.0833V5.83333C4.08203 5.35617 4.25441 4.94521 4.59916 4.60046C4.94391 4.25571 5.35486 4.08333 5.83203 4.08333H11.082C11.5592 4.08333 11.9702 4.25571 12.3149 4.60046C12.6597 4.94521 12.832 5.35617 12.832 5.83333V11.0833C12.832 11.5605 12.6597 11.9715 12.3149 12.3162C11.9702 12.661 11.5592 12.8333 11.082 12.8333H5.83203ZM5.83203 23.9167C5.35486 23.9167 4.94391 23.7443 4.59916 23.3995C4.25441 23.0548 4.08203 22.6438 4.08203 22.1667V16.9167C4.08203 16.4395 4.25441 16.0285 4.59916 15.6838C4.94391 15.339 5.35486 15.1667 5.83203 15.1667H11.082C11.5592 15.1667 11.9702 15.339 12.3149 15.6838C12.6597 16.0285 12.832 16.4395 12.832 16.9167V22.1667C12.832 22.6438 12.6597 23.0548 12.3149 23.3995C11.9702 23.7443 11.5592 23.9167 11.082 23.9167H5.83203ZM16.9154 12.8333C16.4382 12.8333 16.0272 12.661 15.6825 12.3162C15.3377 11.9715 15.1654 11.5605 15.1654 11.0833V5.83333C15.1654 5.35617 15.3377 4.94521 15.6825 4.60046C16.0272 4.25571 16.4382 4.08333 16.9154 4.08333H22.1654C22.6425 4.08333 23.0535 4.25571 23.3982 4.60046C23.743 4.94521 23.9154 5.35617 23.9154 5.83333V11.0833C23.9154 11.5605 23.743 11.9715 23.3982 12.3162C23.0535 12.661 22.6425 12.8333 22.1654 12.8333H16.9154ZM16.9154 23.9167C16.4382 23.9167 16.0272 23.7443 15.6825 23.3995C15.3377 23.0548 15.1654 22.6438 15.1654 22.1667V16.9167C15.1654 16.4395 15.3377 16.0285 15.6825 15.6838C16.0272 15.339 16.4382 15.1667 16.9154 15.1667H22.1654C22.6425 15.1667 23.0535 15.339 23.3982 15.6838C23.743 16.0285 23.9154 16.4395 23.9154 16.9167V22.1667C23.9154 22.6438 23.743 23.0548 23.3982 23.3995C23.0535 23.7443 22.6425 23.9167 22.1654 23.9167H16.9154ZM5.83203 11.0833H11.082V5.83333H5.83203V11.0833ZM16.9154 11.0833H22.1654V5.83333H16.9154V11.0833ZM16.9154 22.1667H22.1654V16.9167H16.9154V22.1667ZM5.83203 22.1667H11.082V16.9167H5.83203V22.1667Z" fill="#2C2C30"/>
</svg>
