<svg width="28" height="28" viewBox="0 0 28 28" fill="none" xmlns="http://www.w3.org/2000/svg">
<path fill-rule="evenodd" clip-rule="evenodd" d="M20.6082 7.14452C18.4955 6.31038 16.2928 5.89331 14 5.89331C11.7072 5.89331 9.50448 6.31038 7.39183 7.14452C5.82415 7.7634 4.38416 8.58976 3.07187 9.6236C2.61583 9.98287 2.1752 10.3672 1.75 10.7766L14 23.0266L16.967 20.0596C16.5626 19.616 16.2426 19.0941 16.0325 18.5193L14 20.5517L4.31898 10.8707C5.45399 10.0009 6.69139 9.30247 8.0345 8.77224C9.94055 8.01967 11.9251 7.64331 14 7.64331C16.0749 7.64331 18.0595 8.0197 19.9656 8.77227C21.3087 9.3025 22.546 10.0009 23.681 10.8707L22.0193 12.5325C22.5941 12.7426 23.116 13.0626 23.5596 13.467L26.25 10.7766C25.8248 10.3672 25.3842 9.98287 24.9281 9.6236C23.6158 8.58976 22.1759 7.7634 20.6082 7.14452ZM20.896 17.3964C20.7669 17.5252 20.607 17.5896 20.4165 17.5896C20.2258 17.5896 20.066 17.5251 19.937 17.396C19.8081 17.2669 19.7437 17.107 19.7437 16.9165C19.7437 16.7258 19.8083 16.566 19.9374 16.437C20.0665 16.3081 20.2263 16.2437 20.4169 16.2437C20.6075 16.2437 20.7674 16.3083 20.8964 16.4374C21.0252 16.5665 21.0896 16.7263 21.0896 16.9169C21.0896 17.1075 21.0251 17.2674 20.896 17.3964ZM17.8127 18.7026L21.7045 22.5944C21.9099 22.7999 22.1592 22.9026 22.4523 22.9026C22.7455 22.9026 22.9948 22.7999 23.2001 22.5944L26.0944 19.7001C26.2999 19.4948 26.4026 19.2455 26.4026 18.9523C26.4026 18.6592 26.2999 18.4099 26.0944 18.2045L22.2026 14.3127C22.11 14.22 21.9971 14.1447 21.8641 14.0869C21.731 14.029 21.595 14 21.4562 14H18.5545C18.2616 14 18.0127 14.101 17.8076 14.3029C17.6025 14.5048 17.5 14.7553 17.5 15.0545V17.9562C17.5 18.095 17.529 18.231 17.5869 18.3641C17.6447 18.4971 17.72 18.61 17.8127 18.7026Z" fill="#2C2C30"/>
</svg>
