<svg width="28" height="28" viewBox="0 0 28 28" fill="none" xmlns="http://www.w3.org/2000/svg">
<path d="M6.19107 24.5C5.6093 24.5 5.1123 24.294 4.70007 23.882C4.28805 23.4697 4.08203 22.9727 4.08203 22.391V6.77571C4.08203 6.19393 4.28805 5.69693 4.70007 5.28471C5.1123 4.87268 5.6093 4.66667 6.19107 4.66667H11.3827C11.456 4.01897 11.7388 3.46821 12.2309 3.01437C12.7229 2.56035 13.3121 2.33333 13.9987 2.33333C14.6927 2.33333 15.2857 2.56035 15.7779 3.01437C16.27 3.46821 16.5489 4.01897 16.6147 4.66667H21.8063C22.3881 4.66667 22.8851 4.87268 23.2973 5.28471C23.7094 5.69693 23.9154 6.19393 23.9154 6.77571V22.391C23.9154 22.9727 23.7094 23.4697 23.2973 23.882C22.8851 24.294 22.3881 24.5 21.8063 24.5H6.19107ZM6.19107 22.75H21.8063C21.8962 22.75 21.9784 22.7126 22.0531 22.6377C22.1279 22.563 22.1654 22.4808 22.1654 22.391V6.77571C22.1654 6.68587 22.1279 6.60362 22.0531 6.52896C21.9784 6.45409 21.8962 6.41667 21.8063 6.41667H6.19107C6.10124 6.41667 6.01899 6.45409 5.94432 6.52896C5.86946 6.60362 5.83203 6.68587 5.83203 6.77571V22.391C5.83203 22.4808 5.86946 22.563 5.94432 22.6377C6.01899 22.7126 6.10124 22.75 6.19107 22.75ZM8.45703 19.9902H16.0404V18.2405H8.45703V19.9902ZM8.45703 15.4583H19.5404V13.7083H8.45703V15.4583ZM8.45703 10.9261H19.5404V9.17641H8.45703V10.9261ZM13.9987 5.65396C14.2515 5.65396 14.4605 5.57132 14.6258 5.40604C14.7911 5.24076 14.8737 5.03173 14.8737 4.77896C14.8737 4.52618 14.7911 4.31715 14.6258 4.15187C14.4605 3.9866 14.2515 3.90396 13.9987 3.90396C13.7459 3.90396 13.5369 3.9866 13.3716 4.15187C13.2063 4.31715 13.1237 4.52618 13.1237 4.77896C13.1237 5.03173 13.2063 5.24076 13.3716 5.40604C13.5369 5.57132 13.7459 5.65396 13.9987 5.65396Z" fill="#151417"/>
</svg>
