<svg width="28" height="28" viewBox="0 0 28 28" fill="none" xmlns="http://www.w3.org/2000/svg">
<path d="M14.0034 13.4053C14.5838 13.4053 15.08 13.1986 15.492 12.7852C15.9042 12.3718 16.1104 11.8749 16.1104 11.2945C16.1104 10.7141 15.9037 10.2178 15.4903 9.80555C15.0769 9.39352 14.5799 9.18751 13.9993 9.18751C13.4189 9.18751 12.9226 9.3942 12.5106 9.80759C12.0984 10.221 11.8923 10.718 11.8923 11.2986C11.8923 11.879 12.099 12.3752 12.5124 12.7873C12.9257 13.1993 13.4227 13.4053 14.0034 13.4053ZM14.0013 22.3283C16.2837 20.285 18.0303 18.3252 19.2411 16.4488C20.4519 14.5725 21.0573 12.929 21.0573 11.5185C21.0573 9.39167 20.3816 7.64323 19.0302 6.27317C17.6788 4.90312 16.0025 4.21809 14.0013 4.21809C12.0001 4.21809 10.3238 4.90312 8.9724 6.27317C7.62101 7.64323 6.94531 9.39167 6.94531 11.5185C6.94531 12.929 7.55072 14.5725 8.76152 16.4488C9.97233 18.3252 11.7189 20.285 14.0013 22.3283ZM14.0013 24.6569C11.0652 22.1128 8.86351 19.7452 7.39623 17.554C5.92895 15.3626 5.19531 13.3508 5.19531 11.5185C5.19531 8.82623 6.06613 6.6466 7.80777 4.97963C9.5496 3.31266 11.6141 2.47917 14.0013 2.47917C16.3885 2.47917 18.453 3.31266 20.1949 4.97963C21.9365 6.6466 22.8073 8.82623 22.8073 11.5185C22.8073 13.3508 22.0737 15.3626 20.6064 17.554C19.1391 19.7452 16.9374 22.1128 14.0013 24.6569Z" fill="#2C2C30"/>
</svg>
