<svg width="28" height="28" viewBox="0 0 28 28" fill="none" xmlns="http://www.w3.org/2000/svg">
<path d="M11.1611 18.0833L14.0013 15.925L16.7832 18.0609L15.7154 14.6102L18.6006 12.3576H15.1274L14.0013 8.88475L12.8752 12.3576H9.40201L12.2288 14.6102L11.1611 18.0833ZM5.02701 22.75C4.44523 22.75 3.94823 22.544 3.53601 22.132C3.12398 21.7197 2.91797 21.2227 2.91797 20.641V17.444C2.91797 17.2525 2.973 17.0827 3.08305 16.9347C3.19291 16.7866 3.33982 16.6856 3.52376 16.6317C4.03534 16.3939 4.45116 16.0409 4.77122 15.5727C5.09127 15.1046 5.2513 14.5804 5.2513 14C5.2513 13.4196 5.09127 12.8954 4.77122 12.4273C4.45116 11.9591 4.03534 11.6061 3.52376 11.3683C3.33982 11.3144 3.19291 11.2134 3.08305 11.0653C2.973 10.9173 2.91797 10.7475 2.91797 10.556V7.35904C2.91797 6.77726 3.12398 6.28026 3.53601 5.86804C3.94823 5.45601 4.44523 5.25 5.02701 5.25H22.9756C23.5574 5.25 24.0544 5.45601 24.4666 5.86804C24.8786 6.28026 25.0846 6.77726 25.0846 7.35904V10.556C25.0846 10.7475 25.0296 10.9173 24.9196 11.0653C24.8097 11.2134 24.6628 11.3144 24.4788 11.3683C23.9673 11.6061 23.5514 11.9591 23.2314 12.4273C22.9113 12.8954 22.7513 13.4196 22.7513 14C22.7513 14.5804 22.9113 15.1046 23.2314 15.5727C23.5514 16.0409 23.9673 16.3939 24.4788 16.6317C24.6628 16.6856 24.8097 16.7866 24.9196 16.9347C25.0296 17.0827 25.0846 17.2525 25.0846 17.444V20.641C25.0846 21.2227 24.8786 21.7197 24.4666 22.132C24.0544 22.544 23.5574 22.75 22.9756 22.75H5.02701ZM5.02701 21H22.9756C23.0804 21 23.1664 20.9664 23.2337 20.8991C23.301 20.8318 23.3346 20.7458 23.3346 20.641V18.025C22.6152 17.5972 22.0464 17.0285 21.6284 16.3187C21.2103 15.609 21.0013 14.8361 21.0013 14C21.0013 13.1639 21.2103 12.391 21.6284 11.6813C22.0464 10.9715 22.6152 10.4028 23.3346 9.975V7.35904C23.3346 7.25424 23.301 7.1682 23.2337 7.10092C23.1664 7.03364 23.0804 7 22.9756 7H5.02701C4.9222 7 4.83616 7.03364 4.76889 7.10092C4.70161 7.1682 4.66797 7.25424 4.66797 7.35904V9.975C5.38741 10.4028 5.95616 10.9715 6.37422 11.6813C6.79227 12.391 7.0013 13.1639 7.0013 14C7.0013 14.8361 6.79227 15.609 6.37422 16.3187C5.95616 17.0285 5.38741 17.5972 4.66797 18.025V20.641C4.66797 20.7458 4.70161 20.8318 4.76889 20.8991C4.83616 20.9664 4.9222 21 5.02701 21Z" fill="#2C2C30"/>
</svg>
