<svg width="32" height="32" viewBox="0 0 32 32" fill="none" xmlns="http://www.w3.org/2000/svg">
    <path d="M16 20.4199L11.0192 15.4391L12.2489 14.1739L15.125 17.05V7.25H16.875V17.05L19.7511 14.1739L20.9808 15.4391L16 20.4199ZM9.35904 24.75C8.76968 24.75 8.27083 24.5458 7.8625 24.1375C7.45417 23.7292 7.25 23.2303 7.25 22.641V19.4775H9V22.641C9 22.7308 9.03743 22.813 9.11229 22.8877C9.18696 22.9626 9.26921 23 9.35904 23H22.641C22.7308 23 22.813 22.9626 22.8877 22.8877C22.9626 22.813 23 22.7308 23 22.641V19.4775H24.75V22.641C24.75 23.2303 24.5458 23.7292 24.1375 24.1375C23.7292 24.5458 23.2303 24.75 22.641 24.75H9.35904Z" fill="#151417"/>
</svg>
