<svg width="24" height="24" viewBox="0 0 24 24" fill="none" xmlns="http://www.w3.org/2000/svg">
<path d="M11.1263 17.5417H12.8763V10.8333H11.1263V17.5417ZM12.0013 8.83659C12.2683 8.83659 12.4921 8.74627 12.6727 8.56563C12.8534 8.38499 12.9437 8.16118 12.9437 7.89421C12.9437 7.62724 12.8534 7.40344 12.6727 7.2228C12.4921 7.04235 12.2683 6.95213 12.0013 6.95213C11.7343 6.95213 11.5105 7.04235 11.3299 7.2228C11.1492 7.40344 11.0589 7.62724 11.0589 7.89421C11.0589 8.16118 11.1492 8.38499 11.3299 8.56563C11.5105 8.74627 11.7343 8.83659 12.0013 8.83659ZM12.0033 23.0833C10.4703 23.0833 9.02941 22.7924 7.68055 22.2107C6.33169 21.6289 5.15841 20.8394 4.16072 19.842C3.16302 18.8447 2.37309 17.6719 1.79093 16.3237C1.20895 14.9754 0.917969 13.5349 0.917969 12.002C0.917969 10.469 1.20886 9.02812 1.79064 7.67925C2.37241 6.33039 3.16196 5.15712 4.15926 4.15942C5.15657 3.16173 6.32936 2.3718 7.67764 1.78963C9.02591 1.20766 10.4665 0.916672 11.9993 0.916672C13.5323 0.916672 14.9732 1.20756 16.3221 1.78934C17.6709 2.37112 18.8442 3.16066 19.8419 4.15796C20.8396 5.15527 21.6295 6.32806 22.2117 7.67634C22.7936 9.02462 23.0846 10.4652 23.0846 11.998C23.0846 13.531 22.7937 14.9719 22.212 16.3208C21.6302 17.6696 20.8406 18.8429 19.8433 19.8406C18.846 20.8383 17.6732 21.6282 16.325 22.2104C14.9767 22.7924 13.5361 23.0833 12.0033 23.0833ZM12.0013 21.3333C14.6069 21.3333 16.8138 20.4292 18.6221 18.6208C20.4305 16.8125 21.3346 14.6056 21.3346 12C21.3346 9.39445 20.4305 7.18751 18.6221 5.37917C16.8138 3.57084 14.6069 2.66667 12.0013 2.66667C9.39575 2.66667 7.1888 3.57084 5.38047 5.37917C3.57214 7.18751 2.66797 9.39445 2.66797 12C2.66797 14.6056 3.57214 16.8125 5.38047 18.6208C7.1888 20.4292 9.39575 21.3333 12.0013 21.3333Z" fill="#151417"/>
</svg>
