<svg width="28" height="28" viewBox="0 0 28 28" fill="none" xmlns="http://www.w3.org/2000/svg">
<path d="M14.058 23.0417C11.5347 23.0417 9.38727 22.1636 7.61569 20.4076C5.84391 18.6516 4.95802 16.5157 4.95802 14V13.0891L2.79969 15.2475L1.57031 14.0181L5.83302 9.75508L10.0957 14.0181L8.86635 15.2475L6.70802 13.0891V14C6.70802 16.0267 7.42144 17.7487 8.84827 19.166C10.2753 20.5831 12.0119 21.2917 14.058 21.2917C14.5412 21.2917 15.0239 21.239 15.5061 21.1336C15.9886 21.028 16.4594 20.8698 16.9187 20.659L18.2312 21.9715C17.5745 22.3245 16.8966 22.591 16.1974 22.7713C15.498 22.9515 14.7849 23.0417 14.058 23.0417ZM22.1664 18.2449L17.9036 13.9819L19.133 12.7525L21.2914 14.9109V14C21.2914 11.9733 20.5779 10.2513 19.1511 8.834C17.7241 7.41688 15.9875 6.70833 13.9414 6.70833C13.4582 6.70833 12.9755 6.76102 12.4932 6.86641C12.0108 6.97199 11.54 7.13018 11.0807 7.34095L9.76819 6.02845C10.4248 5.67554 11.1028 5.40895 11.802 5.2287C12.5014 5.04845 13.2145 4.95833 13.9414 4.95833C16.4647 4.95833 18.6121 5.83634 20.3837 7.59237C22.1555 9.3484 23.0414 11.4843 23.0414 14V14.9109L25.1997 12.7525L26.4291 13.9819L22.1664 18.2449Z" fill="#151417"/>
</svg>
